<?xml version="1.0" encoding="UTF-8" standalone="no"?>
<!-- Created with Inkscape (http://www.inkscape.org/) -->

<svg
   xmlns:dc="http://purl.org/dc/elements/1.1/"
   xmlns:cc="http://creativecommons.org/ns#"
   xmlns:rdf="http://www.w3.org/1999/02/22-rdf-syntax-ns#"
   xmlns:svg="http://www.w3.org/2000/svg"
   xmlns="http://www.w3.org/2000/svg"
   xmlns:sodipodi="http://sodipodi.sourceforge.net/DTD/sodipodi-0.dtd"
   xmlns:inkscape="http://www.inkscape.org/namespaces/inkscape"
   width="100.00001"
   height="100.00001"
   viewBox="0 0 100.00001 100.00001"
   version="1.1"
   id="SVGRoot"
   sodipodi:docname="waves.svg"
   inkscape:version="0.92.3 (2405546, 2018-03-11)">
  <sodipodi:namedview
     id="base"
     pagecolor="#ffffff"
     bordercolor="#666666"
     borderopacity="1.0"
     inkscape:pageopacity="0.0"
     inkscape:pageshadow="2"
     inkscape:zoom="3.6203867"
     inkscape:cx="56.454835"
     inkscape:cy="51.311547"
     inkscape:document-units="px"
     inkscape:current-layer="layer1"
     showgrid="false"
     inkscape:window-width="1366"
     inkscape:window-height="715"
     inkscape:window-x="0"
     inkscape:window-y="0"
     inkscape:window-maximized="1" />
  <defs
     id="defs80" />
  <metadata
     id="metadata83">
    <rdf:RDF>
      <cc:Work
         rdf:about="">
        <dc:format>image/svg+xml</dc:format>
        <dc:type
           rdf:resource="http://purl.org/dc/dcmitype/StillImage" />
        <dc:title></dc:title>
      </cc:Work>
    </rdf:RDF>
  </metadata>
  <g
     id="layer1"
     inkscape:groupmode="layer"
     inkscape:label="Layer 1"
     transform="translate(-242.15354,-204.19323)">
    <g
       id="g3959"
       transform="matrix(0.94777297,0,0,0.94777297,13.692648,13.0089)">
      <path
         inkscape:connector-curvature="0"
         sodipodi:nodetypes="cccccccccccccccc"
         id="path2161"
         d="m 292.96316,292.86757 c 2.51872,-5.12325 3.29128,-11.3341 0.53325,-16.51717 -2.06933,-4.17726 -4.84956,-7.79826 -7.41481,-11.67064 -4.07078,-5.26514 -7.26359,-11.83577 -5.81048,-18.5265 0.76469,-4.84486 3.71753,-9.02309 6.02311,-13.25668 2.25847,-3.72059 4.48393,-7.75931 5.54653,-12.05003 1.13385,-5.88536 -0.64389,-14.50892 -4.69317,-19.12701 l 12.09581,0.004 c 2.86155,4.49431 6.14156,9.34506 5.59316,14.8578 0.46569,7.20883 -4.20408,13.33159 -7.3534,19.50609 -3.74947,5.87617 -6.52781,13.34327 -3.43515,20.03255 2.8821,6.34391 7.64528,11.68874 11.05261,17.77588 2.86372,4.52458 3.09434,10.15986 1.96294,15.21218 -2.12504,5.59951 -5.19056,12.68878 -7.71061,18.122 l -13.11665,-0.0172 c 1.65501,-5.00027 4.43981,-9.5932 6.72686,-14.34549 z"
         style="fill:#094cf6" />
      <path
         inkscape:connector-curvature="0"
         style="fill:#094cf6"
         d="m 272.70559,292.86757 c 2.51872,-5.12325 3.29128,-11.3341 0.53325,-16.51717 -2.06933,-4.17726 -4.84956,-7.79826 -7.41481,-11.67064 -4.07078,-5.26514 -7.26359,-11.83577 -5.81048,-18.5265 0.76469,-4.84486 3.71753,-9.02309 6.02311,-13.25668 2.25847,-3.72059 4.48393,-7.75931 5.54653,-12.05003 1.13385,-5.88536 -0.64389,-14.50892 -4.69317,-19.12701 l 12.09581,0.004 c 2.86155,4.49431 6.14156,9.34506 5.59316,14.8578 0.46569,7.20883 -4.20408,13.33159 -7.3534,19.50609 -3.74947,5.87617 -6.52781,13.34327 -3.43515,20.03255 2.8821,6.34391 7.64528,11.68874 11.05261,17.77588 2.86372,4.52458 3.09434,10.15986 1.96294,15.21218 -2.12504,5.59951 -5.19056,12.68878 -7.71061,18.122 l -13.11665,-0.0172 c 1.65501,-5.00027 4.43981,-9.5932 6.72686,-14.34549 z"
         id="path2248"
         sodipodi:nodetypes="cccccccccccccccc" />
      <path
         inkscape:connector-curvature="0"
         style="fill:#094cf6"
         d="m 313.22073,292.86757 c 2.51872,-5.12325 3.29128,-11.3341 0.53325,-16.51717 -2.06933,-4.17726 -4.84956,-7.79826 -7.41481,-11.67064 -4.07078,-5.26514 -7.26359,-11.83577 -5.81048,-18.5265 0.76469,-4.84486 3.71753,-9.02309 6.02311,-13.25668 2.25847,-3.72059 4.48393,-7.75931 5.54653,-12.05003 1.13385,-5.88536 -0.64389,-14.50892 -4.69317,-19.12701 l 12.09581,0.004 c 2.86155,4.49431 6.14156,9.34506 5.59316,14.8578 0.46569,7.20883 -4.20408,13.33159 -7.3534,19.50609 -3.74947,5.87617 -6.52781,13.34327 -3.43515,20.03255 2.8821,6.34391 7.64528,11.68874 11.05261,17.77588 2.86372,4.52458 3.09434,10.15986 1.96294,15.21218 -2.12504,5.59951 -5.19056,12.68878 -7.71061,18.122 l -13.11665,-0.0172 c 1.65501,-5.00027 4.43981,-9.5932 6.72686,-14.34549 z"
         id="path2250"
         sodipodi:nodetypes="cccccccccccccccc" />
    </g>
  </g>
</svg>
